<?xml version="1.0" encoding="iso-8859-1"?>
<!-- Uploaded to: SVG Repo, www.svgrepo.com, Generator: SVG Repo Mixer Tools -->
<svg height="800px" width="800px" version="1.1" id="Layer_1" xmlns="http://www.w3.org/2000/svg" xmlns:xlink="http://www.w3.org/1999/xlink" 
	 viewBox="0 0 252.921 252.921" xml:space="preserve">
<g>
	<path style="fill:#99D9F1;" d="M152.438,160.846c24.152,9.966,25.478,41.592,15.19,61.645
		c-8.841,17.28-26.884,27.969-46.455,26.482c-24.312-1.808-40.547-23.268-42.315-46.535c-1.607-21.339,8.881-34.52,26.121-44.968
		c0.563-0.161,1.005-0.603,1.005-1.407c-1.206-42.275-1.768-84.51-2.813-126.746c1.808-10.328,5.505-20.856,14.909-24.272
		l1.768,5.546c-0.683,0-1.366,0.08-2.049,0.161c-0.804,0.121-0.884,1.326,0,1.286c1.045-0.04,2.049,0,3.094,0.161l-0.482,3.135
		c-0.04,0-0.08,0-0.121,0c-2.773,0.321-5.184,1.286-7.434,2.934c-0.643,0.442-0.08,1.487,0.643,1.085
		c1.889-1.085,3.858-1.849,5.948-2.451l1.005,3.456c-4.822,2.25-6.912,6.631-7.153,11.774c-0.442,0.241-0.764,0.683-0.764,1.366
		c-0.08,46.334-0.321,92.869,1.326,139.123c0.04,0.281,0.12,0.522,0.201,0.683c-12.859,6.349-20.454,22.022-15.271,35.926
		c5.505,14.668,23.91,20.937,38.337,18.244c31.063-5.787,31.425-47.499,3.295-57.908c-0.12-0.04-0.281-0.04-0.402-0.04
		c0.442-6.55,0.804-13.1,1.085-19.651l2.492,0.121c0,0.884,0.08,1.808,0.201,2.733c0.121,0.884,1.567,0.683,1.527-0.201
		c-0.161-2.652,0.201-5.224,0.804-7.836c0-0.08,0.04-0.121,0.04-0.201l1.246,0.08c-0.161,1.648-0.241,3.295-0.321,4.943
		c-0.04,1.005,1.406,0.964,1.527,0c0.482-3.818,0.924-7.675,1.085-11.533l3.054,0.08c-0.12,6.309-0.241,12.578-0.322,18.887
		C150.911,157.31,150.509,160.082,152.438,160.846z M144.24,238.525c0.683-0.442,0.08-1.487-0.643-1.085
		c-2.451,1.366-5.304,1.567-7.917,0.402c-0.683-0.281-1.286,0.683-0.603,1.045C138.132,240.414,141.347,240.333,144.24,238.525z
		 M97.786,222.531c0.723,0.523,1.688-0.683,0.965-1.206c-1.648-1.326-8.801-7.716-6.028-9.966c0.764-0.603-0.201-1.768-1.005-1.286
		C86.493,213.168,95.254,220.883,97.786,222.531z M96.821,212.927c0.764,0.522,1.607-0.603,0.964-1.246
		c-2.331-2.371-3.094-5.184-3.094-8.479c0-1.005-1.447-1.165-1.768-0.241C91.718,206.778,93.646,210.837,96.821,212.927z"/>
	<path style="fill:#1D1D1B;" d="M155.653,158.033c46.495,21.781,14.748,95.883-31.787,94.878
		c-47.821-1.005-71.973-84.43-20.896-96.687c-0.04-0.08-0.04-0.121-0.08-0.161c-3.818-42.516-5.023-86.52-2.331-129.117
		c0-0.08,0.04-0.121,0.08-0.161c-0.362-14.507,11.292-27.809,26.683-26.723c16.918,1.165,28.813,17.842,27.407,34.118
		c3.536,18.003,2.371,37.574,2.532,55.778C157.461,112.623,157.501,135.449,155.653,158.033z M167.628,222.491
		c10.288-20.053,8.961-51.679-15.19-61.645c-1.929-0.764-1.527-3.536,0-3.898c0.08-6.309,0.201-12.578,0.322-18.887
		c0.362-14.748,0.804-29.536,0.723-44.325c-0.121-18.526-2.652-38.136-1.406-56.782c-0.08-0.161-0.201-0.281-0.201-0.442
		c-1.768-14.949-6.992-31.345-24.835-32.591c-3.456-0.241-6.43,0.161-8.961,1.125c-9.403,3.416-13.1,13.944-14.909,24.272
		c1.045,42.235,1.607,84.47,2.813,126.746c0,0.804-0.442,1.246-1.005,1.407c-17.24,10.448-27.728,23.629-26.121,44.968
		c1.768,23.268,18.003,44.727,42.315,46.535C140.744,250.46,158.787,239.771,167.628,222.491z"/>
	<path style="fill:#99D9F1;" d="M153.483,93.736c0.08,14.788-0.362,29.577-0.723,44.325l-3.054-0.08c0.04-1.085-1.527-1.005-1.648,0
		c-0.281,2.17-0.522,4.38-0.643,6.59l-1.246-0.08c0-0.764-1.165-0.965-1.487-0.161c-0.764,1.849-1.085,3.737-1.085,5.666
		l-2.492-0.121c1.728-38.699,1.045-77.719,1.366-116.337c0.322-0.402,0.482-0.924,0.281-1.567
		c-2.331-7.957-9.845-14.507-18.526-12.819c-1.406,0.281-2.692,0.683-3.777,1.206l-1.005-3.456c0.322-0.121,0.683-0.201,1.045-0.281
		c0.643-0.201,0.563-1.286-0.08-1.286l0.482-3.135c1.567,0.241,3.094,0.683,4.581,1.326c0.804,0.321,1.527-0.764,0.683-1.246
		c-2.049-1.125-4.099-1.688-6.309-1.688l-1.768-5.546c2.532-0.964,5.505-1.366,8.961-1.125
		c17.842,1.246,23.067,17.642,24.835,32.591c0,0.161,0.121,0.281,0.201,0.442C150.831,55.6,153.362,75.21,153.483,93.736z"/>
	<path style="fill:#1D1D1B;" d="M148.178,188.815c3.496,2.25,5.264,6.59,3.818,10.609c-0.281,0.683-1.326,0.442-1.165-0.321
		c0.884-3.496-0.201-7.233-3.215-9.363C147.053,189.338,147.576,188.413,148.178,188.815z"/>
	<path style="fill:#1D1D1B;" d="M148.058,137.98c0.121-1.005,1.688-1.085,1.648,0c-0.161,3.858-0.603,7.716-1.085,11.533
		c-0.121,0.964-1.567,1.005-1.527,0c0.08-1.648,0.161-3.295,0.321-4.943C147.535,142.361,147.777,140.15,148.058,137.98z"/>
	<path style="fill:#1D1D1B;" d="M147.455,194.923c1.648,3.456,2.21,7.073,1.728,10.85c-0.08,1.005-1.648,1.045-1.567,0
		c0.241-3.496-0.241-6.992-1.366-10.328C146.008,194.723,147.174,194.24,147.455,194.923z"/>
	<path style="fill:#1D1D1B;" d="M146.169,144.49c0,0.08-0.04,0.12-0.04,0.201c-0.603,2.612-0.965,5.184-0.804,7.836
		c0.04,0.884-1.406,1.085-1.527,0.201c-0.12-0.924-0.201-1.848-0.201-2.733c0-1.929,0.322-3.818,1.085-5.666
		C145.004,143.526,146.169,143.727,146.169,144.49z"/>
	<path style="fill:#1D1D1B;" d="M143.597,237.44c0.723-0.402,1.326,0.643,0.643,1.085c-2.893,1.808-6.108,1.889-9.162,0.362
		c-0.683-0.362-0.08-1.326,0.603-1.045C138.293,239.007,141.146,238.806,143.597,237.44z"/>
	<path style="fill:#1D1D1B;" d="M140.423,169.566c28.13,10.408,27.768,52.121-3.295,57.908
		c-14.427,2.692-32.832-3.577-38.337-18.244c-5.184-13.904,2.411-29.577,15.271-35.926c-0.08-0.161-0.161-0.402-0.201-0.683
		c-1.648-46.254-1.407-92.789-1.326-139.123c0-0.683,0.321-1.125,0.764-1.366c0.241-5.144,2.331-9.524,7.153-11.774
		c1.085-0.522,2.371-0.924,3.777-1.206c8.68-1.688,16.195,4.863,18.526,12.819c0.201,0.643,0.04,1.165-0.281,1.567
		c-0.322,38.618,0.362,77.639-1.366,116.337c-0.281,6.55-0.643,13.101-1.085,19.651
		C140.141,169.526,140.302,169.526,140.423,169.566z M132.707,224.38c29.295-1.849,33.274-41.431,6.791-51.317
		c-0.884-0.321-1.246-1.125-1.205-1.849c-0.442-0.161-0.844-0.442-0.884-1.085c-1.286-33.274-0.362-66.829,0.603-100.263
		c-3.456,0.723-7.113,0.804-10.649,0.924c-3.577,0.161-7.314,0.482-10.81-0.402c0.563,34.077,0.884,68.235,0.201,102.232
		c-0.04,0.844-0.603,1.286-1.246,1.366c0,0.201-0.08,0.362-0.281,0.563c-10.046,9.363-19.852,21.941-11.734,36.449
		C108.997,220.843,121.977,225.063,132.707,224.38z M138.976,33.015c0-0.161,0.08-0.241,0.08-0.362
		c-2.009-5.988-7.354-11.051-14.105-9.845c-5.626,1.005-8.198,5.063-9.243,9.886c0.121,0.201,0.241,0.482,0.241,0.804
		c0.201,11.694,0.402,23.428,0.603,35.163c3.134-1.045,6.631-1.085,9.926-1.407c3.818-0.362,7.796-1.045,11.654-1.005
		C138.453,55.158,138.775,44.066,138.976,33.015z"/>
	<path style="fill:#E94B59;" d="M139.498,173.062c26.482,9.886,22.504,49.469-6.791,51.317c-10.73,0.683-23.71-3.536-29.215-13.382
		c-8.118-14.507,1.688-27.085,11.734-36.449c0.201-0.201,0.281-0.362,0.281-0.563c0.643-0.08,1.206-0.522,1.246-1.366
		c0.683-33.997,0.362-68.155-0.201-102.232c3.496,0.884,7.233,0.563,10.81,0.402c3.536-0.121,7.193-0.201,10.649-0.924
		c-0.964,33.434-1.889,66.99-0.603,100.263c0.04,0.643,0.442,0.924,0.884,1.085C138.253,171.937,138.614,172.741,139.498,173.062z
		 M151.996,199.424c1.447-4.019-0.322-8.359-3.818-10.609c-0.603-0.402-1.125,0.522-0.563,0.924c3.014,2.13,4.099,5.867,3.215,9.363
		C150.67,199.866,151.715,200.107,151.996,199.424z M149.183,205.774c0.482-3.777-0.08-7.394-1.728-10.85
		c-0.281-0.683-1.447-0.201-1.206,0.522c1.125,3.335,1.607,6.832,1.366,10.328C147.535,206.818,149.103,206.778,149.183,205.774z
		 M127.322,137.136c0.201-0.844-1.005-1.165-1.246-0.362c-0.522,1.889-0.804,3.777-0.924,5.747c-0.04,0.844,1.286,0.844,1.366,0
		C126.679,140.713,126.96,138.905,127.322,137.136z M124.509,212.324c0.763,0.482,1.407-0.683,0.683-1.165
		c-2.451-1.808-3.496-4.903-2.572-7.796c0.241-0.723-0.804-0.964-1.085-0.322C120.29,206.497,121.495,210.274,124.509,212.324z
		 M121.375,122.388c0.321-3.737,0.08-7.434-0.563-11.172c-0.121-0.522-1.045-0.402-0.964,0.121
		c0.362,3.697,0.442,7.394,0.321,11.051C120.169,123.192,121.294,123.152,121.375,122.388z M119.205,127.934
		c0.08-3.536,0-7.033,0-10.569c-0.04-0.482-0.804-0.482-0.844,0c0,3.536-0.08,7.033,0,10.569
		C118.361,128.497,119.205,128.497,119.205,127.934z"/>
	<path style="fill:#EDEDED;" d="M139.056,32.654c0,0.121-0.08,0.201-0.08,0.362c-0.201,11.051-0.522,22.142-0.844,33.234
		c-3.858-0.04-7.836,0.643-11.654,1.005c-3.295,0.321-6.791,0.362-9.926,1.407c-0.201-11.734-0.402-23.468-0.603-35.163
		c0-0.322-0.12-0.603-0.241-0.804c1.045-4.822,3.617-8.881,9.243-9.886C131.702,21.603,137.047,26.666,139.056,32.654z
		 M134.797,41.776c1.406-2.813,1.246-5.867-0.442-8.6c-0.281-0.442-1.005-0.04-0.723,0.442c1.246,2.411,1.286,5.144,0.161,7.595
		C133.511,41.896,134.475,42.459,134.797,41.776z"/>
	<path style="fill:#1D1D1B;" d="M134.355,33.176c1.688,2.733,1.848,5.787,0.442,8.6c-0.322,0.683-1.286,0.121-1.005-0.563
		c1.125-2.451,1.085-5.184-0.161-7.595C133.35,33.136,134.073,32.734,134.355,33.176z"/>
	<path style="fill:#1D1D1B;" d="M126.076,136.775c0.241-0.804,1.447-0.482,1.246,0.362c-0.362,1.768-0.643,3.577-0.804,5.385
		c-0.08,0.844-1.407,0.844-1.366,0C125.273,140.552,125.554,138.663,126.076,136.775z"/>
	<path style="fill:#1D1D1B;" d="M126.157,12.28c0.844,0.482,0.121,1.567-0.683,1.246c-1.487-0.643-3.014-1.085-4.581-1.326
		c-1.045-0.161-2.049-0.201-3.094-0.161c-0.884,0.04-0.804-1.165,0-1.286c0.683-0.08,1.366-0.161,2.049-0.161
		C122.058,10.592,124.107,11.154,126.157,12.28z"/>
	<path style="fill:#1D1D1B;" d="M125.192,211.158c0.723,0.482,0.08,1.648-0.683,1.165c-3.014-2.049-4.219-5.827-2.974-9.283
		c0.281-0.643,1.326-0.402,1.085,0.322C121.696,206.256,122.741,209.35,125.192,211.158z"/>
	<path style="fill:#1D1D1B;" d="M120.812,111.217c0.643,3.737,0.884,7.434,0.563,11.172c-0.08,0.764-1.206,0.804-1.206,0
		c0.121-3.657,0.04-7.354-0.321-11.051C119.767,110.815,120.691,110.694,120.812,111.217z"/>
	<path style="fill:#1D1D1B;" d="M120.41,15.334c0.643,0,0.723,1.085,0.08,1.286c-0.362,0.08-0.723,0.161-1.045,0.281
		c-2.09,0.603-4.059,1.366-5.948,2.451c-0.723,0.402-1.286-0.643-0.643-1.085c2.25-1.648,4.662-2.612,7.434-2.934
		C120.33,15.334,120.37,15.334,120.41,15.334z"/>
	<path style="fill:#1D1D1B;" d="M119.205,117.365c0,3.536,0.08,7.033,0,10.569c0,0.563-0.844,0.563-0.844,0
		c-0.08-3.536,0-7.033,0-10.569C118.401,116.883,119.164,116.883,119.205,117.365z"/>
	<path style="fill:#1D1D1B;" d="M98.75,221.325c0.723,0.522-0.241,1.728-0.965,1.206c-2.532-1.648-11.292-9.363-6.068-12.458
		c0.804-0.482,1.768,0.683,1.005,1.286C89.949,213.61,97.102,219.999,98.75,221.325z"/>
	<path style="fill:#1D1D1B;" d="M97.786,211.681c0.643,0.643-0.201,1.768-0.964,1.246c-3.175-2.09-5.104-6.148-3.898-9.966
		c0.321-0.924,1.768-0.763,1.768,0.241C94.691,206.497,95.455,209.31,97.786,211.681z"/>
</g>
</svg>